<?xml version="1.0" encoding="utf-8"?>
<!-- Generator: Adobe Illustrator 24.1.1, SVG Export Plug-In . SVG Version: 6.00 Build 0)  -->
<svg version="1.1" id="Camada_1" xmlns="http://www.w3.org/2000/svg" xmlns:xlink="http://www.w3.org/1999/xlink" x="0px" y="0px"
	 viewBox="0 0 2500 391" style="enable-background:new 0 0 2500 391;" xml:space="preserve">
<style type="text/css">
	.st0{fill:#FFFFFF;}
</style>
<path class="st0" d="M884.4,278.3c0-6.3,1.6-15.6,4.7-35.9l18.8-82.8h76.6l17.2-78.1H925l17.2-81.3h-98.4l-51.6,243.8
	c-6.3,28.1-7.8,42.2-7.8,53.1c0,60.9,43.8,93.8,96.9,93.8c23.4,0,39.1-3.1,57.8-7.8l17.2-78.1c-12.5,1.6-25,3.1-35.9,3.1
	C896.9,306.4,884.4,297.1,884.4,278.3L884.4,278.3z M651.6,73.6C542.2,73.6,475,151.7,475,261.1c0,82.8,57.8,129.7,139.1,129.7
	c39.1,0,68.8-3.1,98.4-12.5l15.6-76.6c-25,6.2-51.6,7.8-84.4,7.8c-51.6,0-81.3-17.2-81.3-54.7v-3.1c23.4,3.1,46.9,4.7,81.3,4.7
	c73.4,0,121.9-26.6,121.9-96.9C767.2,114.2,737.5,73.6,651.6,73.6L651.6,73.6z M678.1,172.1c-3.1,18.8-18.8,29.7-62.5,29.7
	c-9.4,0-23.4-1.6-39.1-3.1c10.9-29.7,32.8-56.3,70.3-56.3c21.9,0,32.8,10.9,32.8,25C678.1,168.9,678.1,170.5,678.1,172.1z
	 M1770.3,75.2c-98.4,0-150,53.1-168.8,145.3c-3.1,17.2-4.7,32.8-4.7,46.9c0,84.4,57.8,123.4,134.4,123.4
	c95.3,0,148.4-48.4,168.8-145.3c3.1-17.2,4.7-31.3,4.7-45.3C1903.1,120.5,1853.1,75.2,1770.3,75.2L1770.3,75.2z M1806.3,223.6
	l-4.7,23.4c-7.8,35.9-28.1,57.8-65.6,57.8c-29.7,0-42.2-18.8-42.2-43.8c0-6.2,0-12.5,1.6-20.3l4.7-23.4
	c7.8-35.9,26.6-59.4,62.5-59.4c29.7,0,43.8,20.3,43.8,46.9C1807.8,211.1,1807.8,217.4,1806.3,223.6L1806.3,223.6z M337.5,242.4
	c-9.4,43.8-18.8,53.1-28.1,53.1c-14.1,0-15.6-12.5-20.3-43.8L275,170.5c-10.9-70.3-48.4-95.3-103.1-95.3
	c-73.4,0-118.8,48.4-139.1,148.4L0,383h95.3l34.4-160.9c9.4-43.8,18.8-53.1,28.1-53.1c14.1,0,15.6,12.5,20.3,43.8l14.1,81.3
	c10.9,70.3,48.4,95.3,103.1,95.3c73.4,0,118.8-48.4,139.1-148.4l34.4-160.9h-95.3L337.5,242.4z M2106.3,258
	c73.4,0,121.9-26.6,121.9-96.9c0-48.4-29.7-87.5-115.6-87.5c-109.4,0-176.6,78.1-176.6,187.5c0,82.8,57.8,129.7,139.1,129.7
	c39.1,0,68.8-3.1,98.4-12.5l15.6-76.6c-25,6.2-51.6,7.8-84.4,7.8c-51.6,0-81.3-17.2-81.3-54.7v-3.1
	C2046.9,256.4,2070.3,258,2106.3,258L2106.3,258z M2104.7,142.4c21.9,0,32.8,10.9,32.8,25v4.7c-3.1,18.8-18.8,29.7-62.5,29.7
	c-9.4,0-23.4-1.6-39.1-3.1C2046.9,168.9,2067.2,142.4,2104.7,142.4z M1170.3,148.6c18.8,0,43.8,3.1,73.4,6.3l15.6-71.9
	c-28.1-6.3-62.5-9.4-96.9-9.4c-71.9,0-139.1,28.1-139.1,93.8c0,32.8,15.6,48.4,60.9,82.8c31.3,21.9,45.3,32.8,45.3,40.6
	c0,15.6-17.2,20.3-56.2,20.3c-23.4,0-50-3.1-79.7-7.8l-15.6,76.6c26.6,6.2,65.6,10.9,110.9,10.9c81.2,0,142.2-35.9,142.2-106.3
	c0-35.9-25-59.4-68.8-89.1l-18.7-12.5c-12.5-9.4-18.8-12.5-18.8-18.8C1123.4,151.8,1139.1,148.6,1170.3,148.6L1170.3,148.6z
	 M2410.9,148.6c18.8,0,43.8,3.1,73.4,6.3L2500,83c-28.1-6.3-62.5-9.4-96.9-9.4c-71.9,0-139.1,28.1-139.1,93.8
	c0,32.8,15.6,48.4,60.9,82.8c31.3,21.9,45.3,32.8,45.3,40.6c0,15.6-17.2,20.3-56.3,20.3c-23.4,0-50-3.1-79.7-7.8l-15.6,76.6
	c26.6,6.2,65.6,10.9,110.9,10.9c81.3,0,142.2-35.9,142.2-106.3c0-35.9-25-59.4-68.8-89.1l-18.8-12.5c-12.5-9.4-18.7-12.5-18.7-18.8
	C2364.1,151.8,2379.7,148.6,2410.9,148.6L2410.9,148.6z M1492.2,75.2c-34.4,0-62.5,10.9-89.1,32.8L1425,0.2h-96.9L1246.9,383h98.4
	l45.3-214.1c17.2-7.8,34.4-12.5,50-12.5c21.9,0,32.8,7.8,32.8,25c0,3.1,0,6.3-1.6,10.9L1431.3,383h98.4l40.6-192.2
	c3.1-12.5,3.1-23.4,3.1-34.4C1575,98.6,1534.4,75.2,1492.2,75.2L1492.2,75.2z"/>
</svg>
